  0
SECTION
  2
HEADER
  9
$ACADVER
  1
AC1012
  9
$DWGCODEPAGE
  3
ansi_932
  9
$INSBASE
 10
0.0
 20
0.0
 30
0.0
  9
$EXTMIN
 10
1.000000000000000E+20
 20
1.000000000000000E+20
 30
1.000000000000000E+20
  9
$EXTMAX
 10
-1.000000000000000E+20
 20
-1.000000000000000E+20
 30
-1.000000000000000E+20
  9
$LIMMIN
 10
0.0
 20
0.0
  9
$LIMMAX
 10
12.0
 20
9.0
  9
$ORTHOMODE
 70
     0
  9
$REGENMODE
 70
     1
  9
$FILLMODE
 70
     1
  9
$QTEXTMODE
 70
     0
  9
$MIRRTEXT
 70
     1
  9
$DRAGMODE
 70
     2
  9
$LTSCALE
 40
1.0
  9
$OSMODE
 70
    37
  9
$ATTMODE
 70
     1
  9
$TEXTSIZE
 40
0.2
  9
$TRACEWID
 40
0.05
  9
$TEXTSTYLE
  7
STANDARD
  9
$CLAYER
  8
0
  9
$CELTYPE
  6
BYLAYER
  9
$CECOLOR
 62
   256
  9
$CELTSCALE
 40
1.0
  9
$DELOBJ
 70
     1
  9
$DISPSILH
 70
     0
  9
$DIMSCALE
 40
1.0
  9
$DIMASZ
 40
0.18
  9
$DIMEXO
 40
0.0625
  9
$DIMDLI
 40
0.38
  9
$DIMRND
 40
0.0
  9
$DIMDLE
 40
0.0
  9
$DIMEXE
 40
0.18
  9
$DIMTP
 40
0.0
  9
$DIMTM
 40
0.0
  9
$DIMTXT
 40
0.18
  9
$DIMCEN
 40
0.09
  9
$DIMTSZ
 40
0.0
  9
$DIMTOL
 70
     0
  9
$DIMLIM
 70
     0
  9
$DIMTIH
 70
     1
  9
$DIMTOH
 70
     1
  9
$DIMSE1
 70
     0
  9
$DIMSE2
 70
     0
  9
$DIMTAD
 70
     0
  9
$DIMZIN
 70
     0
  9
$DIMBLK
  1

  9
$DIMASO
 70
     1
  9
$DIMSHO
 70
     1
  9
$DIMPOST
  1

  9
$DIMAPOST
  1

  9
$DIMALT
 70
     0
  9
$DIMALTD
 70
     2
  9
$DIMALTF
 40
25.4
  9
$DIMLFAC
 40
1.0
  9
$DIMTOFL
 70
     0
  9
$DIMTVP
 40
0.0
  9
$DIMTIX
 70
     0
  9
$DIMSOXD
 70
     0
  9
$DIMSAH
 70
     0
  9
$DIMBLK1
  1

  9
$DIMBLK2
  1

  9
$DIMSTYLE
  2
STANDARD
  9
$DIMCLRD
 70
     0
  9
$DIMCLRE
 70
     0
  9
$DIMCLRT
 70
     0
  9
$DIMTFAC
 40
1.0
  9
$DIMGAP
 40
0.09
  9
$DIMJUST
 70
     0
  9
$DIMSD1
 70
     0
  9
$DIMSD2
 70
     0
  9
$DIMTOLJ
 70
     1
  9
$DIMTZIN
 70
     0
  9
$DIMALTZ
 70
     0
  9
$DIMALTTZ
 70
     0
  9
$DIMFIT
 70
     3
  9
$DIMUPT
 70
     0
  9
$DIMUNIT
 70
     2
  9
$DIMDEC
 70
     4
  9
$DIMTDEC
 70
     4
  9
$DIMALTU
 70
     2
  9
$DIMALTTD
 70
     2
  9
$DIMTXSTY
  7
STANDARD
  9
$DIMAUNIT
 70
     0
  9
$LUNITS
 70
     2
  9
$LUPREC
 70
     4
  9
$SKETCHINC
 40
0.1
  9
$FILLETRAD
 40
0.5
  9
$AUNITS
 70
     0
  9
$AUPREC
 70
     0
  9
$MENU
  1
.
  9
$ELEVATION
 40
0.0
  9
$PELEVATION
 40
0.0
  9
$THICKNESS
 40
0.0
  9
$LIMCHECK
 70
     0
  9
$CHAMFERA
 40
0.5
  9
$CHAMFERB
 40
0.5
  9
$CHAMFERC
 40
1.0
  9
$CHAMFERD
 40
0.0
  9
$SKPOLY
 70
     0
  9
$TDCREATE
 40
2456662.490856481
  9
$TDUPDATE
 40
2456662.490856493
  9
$TDINDWG
 40
0.0000000116
  9
$TDUSRTIMER
 40
0.0000000116
  9
$USRTIMER
 70
     1
  9
$ANGBASE
 50
0.0
  9
$ANGDIR
 70
     0
  9
$PDMODE
 70
     0
  9
$PDSIZE
 40
0.0
  9
$PLINEWID
 40
0.0
  9
$COORDS
 70
     1
  9
$SPLFRAME
 70
     0
  9
$SPLINETYPE
 70
     6
  9
$SPLINESEGS
 70
     8
  9
$ATTDIA
 70
     0
  9
$ATTREQ
 70
     1
  9
$HANDLING
 70
     1
  9
$HANDSEED
  5
8B
  9
$SURFTAB1
 70
     6
  9
$SURFTAB2
 70
     6
  9
$SURFTYPE
 70
     6
  9
$SURFU
 70
     6
  9
$SURFV
 70
     6
  9
$UCSNAME
  2

  9
$UCSORG
 10
0.0
 20
0.0
 30
0.0
  9
$UCSXDIR
 10
1.0
 20
0.0
 30
0.0
  9
$UCSYDIR
 10
0.0
 20
1.0
 30
0.0
  9
$PUCSNAME
  2

  9
$PUCSORG
 10
0.0
 20
0.0
 30
0.0
  9
$PUCSXDIR
 10
1.0
 20
0.0
 30
0.0
  9
$PUCSYDIR
 10
0.0
 20
1.0
 30
0.0
  9
$USERI1
 70
     0
  9
$USERI2
 70
     0
  9
$USERI3
 70
     0
  9
$USERI4
 70
     0
  9
$USERI5
 70
     0
  9
$USERR1
 40
0.0
  9
$USERR2
 40
0.0
  9
$USERR3
 40
0.0
  9
$USERR4
 40
0.0
  9
$USERR5
 40
0.0
  9
$WORLDVIEW
 70
     1
  9
$SHADEDGE
 70
     3
  9
$SHADEDIF
 70
    70
  9
$TILEMODE
 70
     1
  9
$MAXACTVP
 70
    64
  9
$PINSBASE
 10
0.0
 20
0.0
 30
0.0
  9
$PLIMCHECK
 70
     0
  9
$PEXTMIN
 10
1.000000000000000E+20
 20
1.000000000000000E+20
 30
1.000000000000000E+20
  9
$PEXTMAX
 10
-1.000000000000000E+20
 20
-1.000000000000000E+20
 30
-1.000000000000000E+20
  9
$PLIMMIN
 10
0.0
 20
0.0
  9
$PLIMMAX
 10
12.0
 20
9.0
  9
$UNITMODE
 70
     0
  9
$VISRETAIN
 70
     1
  9
$PLINEGEN
 70
     0
  9
$PSLTSCALE
 70
     1
  9
$TREEDEPTH
 70
  3020
  9
$PICKSTYLE
 70
     1
  9
$CMLSTYLE
  2
STANDARD
  9
$CMLJUST
 70
     0
  9
$CMLSCALE
 40
1.0
  9
$SAVEIMAGES
 70
     1
  0
ENDSEC
  0
SECTION
  2
CLASSES
  0
CLASS
  1
ACDBDICTIONARYWDFLT
  2
AcDbDictionaryWithDefault
  3
ObjectDBX Classes
 90
    32768
280
     0
281
     0
  0
CLASS
  1
VISUALSTYLE
  2
AcDbVisualStyle
  3
ObjectDBX Classes
 90
     4095
280
     0
281
     0
  0
CLASS
  1
XRECORD
  2
AcDbXrecord
  3
AutoCAD 2000
 90
    32768
280
     0
281
     0
  0
CLASS
  1
LWPOLYLINE
  2
AcDbPolyline
  3
AutoCAD 2000
 90
    32768
280
     0
281
     1
  0
CLASS
  1
HATCH
  2
AcDbHatch
  3
AutoCAD 2000
 90
    32768
280
     0
281
     1
  0
CLASS
  1
ACDBPLACEHOLDER
  2
AcDbPlaceHolder
  3
ObjectDBX Classes
 90
        0
280
     0
281
     0
  0
CLASS
  1
LAYOUT
  2
AcDbLayout
  3
ObjectDBX Classes
 90
        0
280
     0
281
     0
  0
ENDSEC
  0
SECTION
  2
TABLES
  0
TABLE
  2
VPORT
  5
8
330
0
100
AcDbSymbolTable
 70
     1
  0
VPORT
  5
29
330
8
100
AcDbSymbolTableRecord
100
AcDbViewportTableRecord
  2
*ACTIVE
 70
     0
 10
0.0
 20
0.0
 11
1.0
 21
1.0
 12
0.0
 22
0.0
 13
0.0
 23
0.0
 14
0.5
 24
0.5
 15
0.5
 25
0.5
 16
0.0
 26
0.0
 36
1.0
 17
37.500208866493
 27
-37.500208866493
 37
0.0
 40
75.00041773298601
 41
1.0
 42
50.0
 43
0.0
 44
0.0
 50
0.0
 51
0.0
 71
     0
 72
   100
 73
     1
 74
     3
 75
     0
 76
     0
 77
     0
 78
     0
  0
ENDTAB
  0
TABLE
  2
LTYPE
  5
5
330
0
100
AcDbSymbolTable
 70
     1
  0
LTYPE
  5
14
330
5
100
AcDbSymbolTableRecord
100
AcDbLinetypeTableRecord
  2
BYBLOCK
 70
     0
  3

 72
    65
 73
     0
 40
0.0
  0
LTYPE
  5
15
330
5
100
AcDbSymbolTableRecord
100
AcDbLinetypeTableRecord
  2
BYLAYER
 70
     0
  3

 72
    65
 73
     0
 40
0.0
  0
LTYPE
  5
16
330
5
100
AcDbSymbolTableRecord
100
AcDbLinetypeTableRecord
  2
CONTINUOUS
 70
     0
  3
Solid line
 72
    65
 73
     0
 40
0.0
  0
ENDTAB
  0
TABLE
  2
LAYER
  5
2
330
0
100
AcDbSymbolTable
 70
     3
  0
LAYER
  5
10
330
2
100
AcDbSymbolTableRecord
100
AcDbLayerTableRecord
  2
0
 70
     0
 62
     7
  6
CONTINUOUS
  0
LAYER
  5
3B
330
2
100
AcDbSymbolTableRecord
100
AcDbLayerTableRecord
  2
LAYER_1
 70
     1
 62
     7
  6
CONTINUOUS
  0
LAYER
  5
3C
330
2
100
AcDbSymbolTableRecord
100
AcDbLayerTableRecord
  2
LAYER_2
 70
     0
 62
     7
  6
CONTINUOUS
  0
ENDTAB
  0
TABLE
  2
STYLE
  5
3
330
0
100
AcDbSymbolTable
 70
     1
  0
STYLE
  5
11
330
3
100
AcDbSymbolTableRecord
100
AcDbTextStyleTableRecord
  2
STANDARD
 70
     0
 40
0.0
 41
1.0
 50
0.0
 71
     0
 42
0.2
  3
txt
  4

  0
ENDTAB
  0
TABLE
  2
VIEW
  5
6
330
0
100
AcDbSymbolTable
 70
     0
  0
ENDTAB
  0
TABLE
  2
UCS
  5
7
330
0
100
AcDbSymbolTable
 70
     0
  0
ENDTAB
  0
TABLE
  2
APPID
  5
9
330
0
100
AcDbSymbolTable
 70
     1
  0
APPID
  5
12
330
9
100
AcDbSymbolTableRecord
100
AcDbRegAppTableRecord
  2
ACAD
 70
     0
  0
ENDTAB
  0
TABLE
  2
DIMSTYLE
  5
A
330
0
100
AcDbSymbolTable
 70
     1
  0
DIMSTYLE
105
27
330
A
100
AcDbSymbolTableRecord
100
AcDbDimStyleTableRecord
  2
STANDARD
 70
     0
  3

  4

  5

  6

  7

 40
1.0
 41
0.18
 42
0.0625
 43
0.38
 44
0.18
 45
0.0
 46
0.0
 47
0.0
 48
0.0
140
0.18
141
0.09
142
0.0
143
25.4
144
1.0
145
0.0
146
1.0
147
0.09
 71
     0
 72
     0
 73
     1
 74
     1
 75
     0
 76
     0
 77
     0
 78
     0
170
     0
171
     2
172
     0
173
     0
174
     0
175
     0
176
     0
177
     0
178
     0
270
     2
271
     4
272
     4
273
     2
274
     2
340
11
275
     0
280
     0
281
     0
282
     0
283
     1
284
     0
285
     0
286
     0
287
     3
288
     0
  0
ENDTAB
  0
TABLE
  2
BLOCK_RECORD
  5
1
330
0
100
AcDbSymbolTable
 70
     2
  0
BLOCK_RECORD
  5
1F
330
1
100
AcDbSymbolTableRecord
100
AcDbBlockTableRecord
  2
*MODEL_SPACE
  0
BLOCK_RECORD
  5
1B
330
1
100
AcDbSymbolTableRecord
100
AcDbBlockTableRecord
  2
*PAPER_SPACE
  0
BLOCK_RECORD
  5
40
330
1
100
AcDbSymbolTableRecord
100
AcDbBlockTableRecord
  2
*U1
  0
ENDTAB
  0
ENDSEC
  0
SECTION
  2
BLOCKS
  0
BLOCK
  5
20
330
1F
100
AcDbEntity
  8
0
100
AcDbBlockBegin
  2
*MODEL_SPACE
 70
     0
 71
     0
 10
0.0
 20
0.0
 30
0.0
  3
*MODEL_SPACE
  1

  0
ENDBLK
  5
21
330
1F
100
AcDbEntity
  8
0
100
AcDbBlockEnd
  0
BLOCK
  5
1C
330
1B
100
AcDbEntity
 67
     1
  8
0
100
AcDbBlockBegin
  2
*PAPER_SPACE
 70
     0
 71
     0
 10
0.0
 20
0.0
 30
0.0
  3
*PAPER_SPACE
  1

  0
ENDBLK
  5
1D
330
1B
100
AcDbEntity
 67
     1
  8
0
100
AcDbBlockEnd
  0
BLOCK
  5
89
330
40
100
AcDbEntity
  8
0
100
AcDbBlockBegin
  2
*U1
 70
     1
 71
     0
 10
0.0
 20
0.0
 30
0.0
  3
*U1
  1

  0
SOLID
  5
41
330
40
100
AcDbEntity
  8
LAYER_2
 62
   140
100
AcDbTrace
 10
4.918837607664003
 20
-40.84901401703888
 30
0.0
 11
4.749753145513951
 21
-37.50055337604153
 31
0.0
 12
4.918837607664003
 22
-34.15203596162004
 32
0.0
 13
4.918837607664003
 23
-34.15203596162004
 33
0.0
  0
SOLID
  5
42
330
40
100
AcDbEntity
  8
LAYER_2
 62
   140
100
AcDbTrace
 10
4.918837607664003
 20
-40.84901401703888
 30
0.0
 11
4.918837607664003
 21
-34.15203596162004
 31
0.0
 12
5.41511614452194
 22
-44.10075948990221
 32
0.0
 13
5.41511614452194
 23
-44.10075948990221
 33
0.0
  0
SOLID
  5
43
330
40
100
AcDbEntity
  8
LAYER_2
 62
   140
100
AcDbTrace
 10
5.41511614452194
 20
-44.10075948990221
 30
0.0
 11
4.918837607664003
 21
-34.15203596162004
 31
0.0
 12
5.41511614452194
 22
-30.90024835025969
 32
0.0
 13
5.41511614452194
 23
-30.90024835025969
 33
0.0
  0
SOLID
  5
44
330
40
100
AcDbEntity
  8
LAYER_2
 62
   140
100
AcDbTrace
 10
5.41511614452194
 20
-44.10075948990221
 30
0.0
 11
5.41511614452194
 21
-30.90024835025969
 31
0.0
 12
6.222126481699432
 22
-47.23932651093784
 32
0.0
 13
6.222126481699432
 23
-47.23932651093784
 33
0.0
  0
SOLID
  5
45
330
40
100
AcDbEntity
  8
LAYER_2
 62
   140
100
AcDbTrace
 10
6.222126481699432
 20
-47.23932651093784
 30
0.0
 11
5.41511614452194
 21
-30.90024835025969
 31
0.0
 12
6.222126481699432
 22
-27.76165231169616
 32
0.0
 13
6.222126481699432
 23
-27.76165231169616
 33
0.0
  0
SOLID
  5
46
330
40
100
AcDbEntity
  8
LAYER_2
 62
   140
100
AcDbTrace
 10
6.222126481699432
 20
-47.23932651093784
 30
0.0
 11
6.222126481699432
 21
-27.76165231169616
 31
0.0
 12
7.323406344808147
 22
-50.24825179645215
 32
0.0
 13
7.323406344808147
 23
-50.24825179645215
 33
0.0
  0
SOLID
  5
47
330
40
100
AcDbEntity
  8
LAYER_2
 62
   140
100
AcDbTrace
 10
7.323406344808147
 20
-50.24825179645215
 30
0.0
 11
6.222126481699432
 21
-27.76165231169616
 31
0.0
 12
7.323406344808147
 22
-24.75270961566512
 32
0.0
 13
7.323406344808147
 23
-24.75270961566512
 33
0.0
  0
SOLID
  5
48
330
40
100
AcDbEntity
  8
LAYER_2
 62
   140
100
AcDbTrace
 10
7.323406344808147
 20
-50.24825179645215
 30
0.0
 11
7.323406344808147
 21
-24.75270961566512
 31
0.0
 12
8.702493459459756
 22
-53.11107206275148
 32
0.0
 13
8.702493459459756
 23
-53.11107206275148
 33
0.0
  0
SOLID
  5
49
330
40
100
AcDbEntity
  8
LAYER_2
 62
   140
100
AcDbTrace
 10
8.702493459459756
 20
-53.11107206275148
 30
0.0
 11
7.323406344808147
 21
-24.75270961566512
 31
0.0
 12
8.702493459459756
 22
-21.88988203190224
 32
0.0
 13
8.702493459459756
 23
-21.88988203190224
 33
0.0
  0
SOLID
  5
4A
330
40
100
AcDbEntity
  8
LAYER_2
 62
   140
100
AcDbTrace
 10
8.702493459459756
 20
-53.11107206275148
 30
0.0
 11
8.702493459459756
 21
-21.88988203190224
 31
0.0
 12
10.34292555126593
 22
-55.81132402614218
 32
0.0
 13
10.34292555126593
 23
-55.81132402614218
 33
0.0
  0
SOLID
  5
4B
330
40
100
AcDbEntity
  8
LAYER_2
 62
   140
100
AcDbTrace
 10
10.34292555126593
 20
-55.81132402614218
 30
0.0
 11
8.702493459459756
 21
-21.88988203190224
 31
0.0
 12
10.34292555126593
 22
-19.18963133014319
 32
0.0
 13
10.34292555126593
 23
-19.18963133014319
 33
0.0
  0
SOLID
  5
4C
330
40
100
AcDbEntity
  8
LAYER_2
 62
   140
100
AcDbTrace
 10
10.34292555126593
 20
-55.81132402614218
 30
0.0
 11
10.34292555126593
 21
-19.18963133014319
 31
0.0
 12
12.22824034583833
 22
-58.33254440293061
 32
0.0
 13
12.22824034583833
 23
-58.33254440293061
 33
0.0
  0
SOLID
  5
4D
330
40
100
AcDbEntity
  8
LAYER_2
 62
   140
100
AcDbTrace
 10
12.22824034583833
 20
-58.33254440293061
 30
0.0
 11
10.34292555126593
 21
-19.18963133014319
 31
0.0
 12
12.22824034583833
 22
-16.66841928012364
 32
0.0
 13
12.22824034583833
 23
-16.66841928012364
 33
0.0
  0
SOLID
  5
4E
330
40
100
AcDbEntity
  8
LAYER_2
 62
   140
100
AcDbTrace
 10
12.22824034583833
 20
-58.33254440293061
 30
0.0
 11
12.22824034583833
 21
-16.66841928012363
 31
0.0
 12
14.34197556878864
 22
-60.65826990942311
 32
0.0
 13
14.34197556878864
 23
-60.65826990942311
 33
0.0
  0
SOLID
  5
4F
330
40
100
AcDbEntity
  8
LAYER_2
 62
   140
100
AcDbTrace
 10
14.34197556878864
 20
-60.65826990942311
 30
0.0
 11
12.22824034583833
 21
-16.66841928012363
 31
0.0
 12
14.34197556878864
 22
-14.34270765157925
 32
0.0
 13
14.34197556878864
 23
-14.34270765157925
 33
0.0
  0
SOLID
  5
50
330
40
100
AcDbEntity
  8
LAYER_2
 62
   140
100
AcDbTrace
 10
14.34197556878864
 20
-60.65826990942311
 30
0.0
 11
14.34197556878864
 21
-14.34270765157925
 31
0.0
 12
16.66766894572852
 22
-62.77203726192604
 32
0.0
 13
16.66766894572852
 23
-62.77203726192604
 33
0.0
  0
SOLID
  5
51
330
40
100
AcDbEntity
  8
LAYER_2
 62
   140
100
AcDbTrace
 10
16.66766894572852
 20
-62.77203726192604
 30
0.0
 11
14.34197556878864
 21
-14.34270765157925
 31
0.0
 12
16.66766894572852
 22
-12.22895821424572
 32
0.0
 13
16.66766894572852
 23
-12.22895821424572
 33
0.0
  0
SOLID
  5
52
330
40
100
AcDbEntity
  8
LAYER_2
 62
   140
100
AcDbTrace
 10
16.66766894572852
 20
-62.77203726192604
 30
0.0
 11
16.66766894572852
 21
-12.22895821424572
 31
0.0
 12
19.18885820226964
 22
-64.65738317674575
 32
0.0
 13
19.18885820226964
 23
-64.65738317674575
 33
0.0
  0
SOLID
  5
53
330
40
100
AcDbEntity
  8
LAYER_2
 62
   140
100
AcDbTrace
 10
19.18885820226964
 20
-64.65738317674575
 30
0.0
 11
16.66766894572852
 21
-12.22895821424572
 31
0.0
 12
19.18885820226964
 22
-10.3436327378587
 32
0.0
 13
19.18885820226964
 23
-10.3436327378587
 33
0.0
  0
SOLID
  5
54
330
40
100
AcDbEntity
  8
LAYER_2
 62
   140
100
AcDbTrace
 10
19.18885820226964
 20
-64.65738317674575
 30
0.0
 11
19.18885820226964
 21
-10.3436327378587
 31
0.0
 12
21.88908106402367
 22
-66.29784437018859
 32
0.0
 13
21.88908106402367
 23
-66.29784437018859
 33
0.0
  0
SOLID
  5
55
330
40
100
AcDbEntity
  8
LAYER_2
 62
   140
100
AcDbTrace
 10
21.88908106402367
 20
-66.29784437018859
 30
0.0
 11
19.18885820226964
 21
-10.3436327378587
 31
0.0
 12
21.88908106402367
 22
-8.703192992153868
 32
0.0
 13
21.88908106402367
 23
-8.703192992153868
 33
0.0
  0
SOLID
  5
56
330
40
100
AcDbEntity
  8
LAYER_2
 62
   140
100
AcDbTrace
 10
21.88908106402368
 20
-66.29784437018859
 30
0.0
 11
21.88908106402368
 21
-8.703192992153866
 31
0.0
 12
24.75187525660229
 22
-67.67695755856091
 32
0.0
 13
24.75187525660229
 23
-67.67695755856091
 33
0.0
  0
SOLID
  5
57
330
40
100
AcDbEntity
  8
LAYER_2
 62
   140
100
AcDbTrace
 10
24.75187525660229
 20
-67.67695755856091
 30
0.0
 11
21.88908106402368
 21
-8.703192992153866
 31
0.0
 12
24.75187525660229
 22
-7.324100746866892
 32
0.0
 13
24.75187525660229
 23
-7.324100746866892
 33
0.0
  0
SOLID
  5
58
330
40
100
AcDbEntity
  8
LAYER_2
 62
   140
100
AcDbTrace
 10
24.75187525660229
 20
-67.67695755856091
 30
0.0
 11
24.75187525660229
 21
-7.324100746866892
 31
0.0
 12
27.76077850561715
 22
-68.77825945816906
 32
0.0
 13
27.76077850561715
 23
-68.77825945816906
 33
0.0
  0
SOLID
  5
59
330
40
100
AcDbEntity
  8
LAYER_2
 62
   140
100
AcDbTrace
 10
27.76077850561715
 20
-68.77825945816906
 30
0.0
 11
24.75187525660229
 21
-7.324100746866892
 31
0.0
 12
27.76077850561715
 22
-6.222817771733447
 32
0.0
 13
27.76077850561715
 23
-6.222817771733447
 33
0.0
  0
SOLID
  5
5A
330
40
100
AcDbEntity
  8
LAYER_2
 62
   140
100
AcDbTrace
 10
27.76077850561715
 20
-68.77825945816906
 30
0.0
 11
27.76077850561715
 21
-6.222817771733447
 31
0.0
 12
30.89932853667994
 22
-69.5852867853194
 32
0.0
 13
30.89932853667994
 23
-69.5852867853194
 33
0.0
  0
SOLID
  5
5B
330
40
100
AcDbEntity
  8
LAYER_2
 62
   140
100
AcDbTrace
 10
30.89932853667994
 20
-69.5852867853194
 30
0.0
 11
27.76077850561715
 21
-6.222817771733447
 31
0.0
 12
30.89932853667994
 22
-5.415805836489202
 32
0.0
 13
30.89932853667994
 23
-5.415805836489202
 33
0.0
  0
SOLID
  5
5C
330
40
100
AcDbEntity
  8
LAYER_2
 62
   140
100
AcDbTrace
 10
30.89932853667994
 20
-69.5852867853194
 30
0.0
 11
30.89932853667994
 21
-5.415805836489202
 31
0.0
 12
34.15106307540232
 22
-70.08157625631829
 32
0.0
 13
34.15106307540232
 23
-70.08157625631829
 33
0.0
  0
SOLID
  5
5D
330
40
100
AcDbEntity
  8
LAYER_2
 62
   140
100
AcDbTrace
 10
34.15106307540232
 20
-70.08157625631829
 30
0.0
 11
30.89932853667994
 21
-5.415805836489202
 31
0.0
 12
34.15106307540232
 22
-4.91952671086983
 32
0.0
 13
34.15106307540232
 23
-4.91952671086983
 33
0.0
  0
SOLID
  5
5E
330
40
100
AcDbEntity
  8
LAYER_2
 62
   140
100
AcDbTrace
 10
34.15106307540232
 20
-70.08157625631829
 30
0.0
 11
34.15106307540232
 21
-4.91952671086983
 31
0.0
 12
37.49951984739595
 22
-70.25066458747206
 32
0.0
 13
37.49951984739595
 23
-70.25066458747206
 33
0.0
  0
SOLID
  5
5F
330
40
100
AcDbEntity
  8
LAYER_2
 62
   140
100
AcDbTrace
 10
37.49951984739595
 20
-70.25066458747206
 30
0.0
 11
34.15106307540232
 21
-4.91952671086983
 31
0.0
 12
37.49951984739595
 22
-4.750442164611001
 32
0.0
 13
37.49951984739595
 23
-4.750442164611001
 33
0.0
  0
SOLID
  5
60
330
40
100
AcDbEntity
  8
LAYER_2
 62
   140
100
AcDbTrace
 10
-37.49951984739595
 20
-70.25066458747206
 30
0.0
 11
-37.49951984739595
 21
-4.750442164611001
 31
0.0
 12
-40.84804113082116
 22
-70.08157625631829
 32
0.0
 13
-40.84804113082116
 23
-70.08157625631829
 33
0.0
210
0.0
220
0.0
230
-1.0
  0
SOLID
  5
61
330
40
100
AcDbEntity
  8
LAYER_2
 62
   140
100
AcDbTrace
 10
-40.84804113082116
 20
-70.08157625631829
 30
0.0
 11
-37.49951984739595
 21
-4.750442164611001
 31
0.0
 12
-40.84804113082116
 22
-4.919526711122796
 32
0.0
 13
-40.84804113082116
 23
-4.919526711122796
 33
0.0
210
0.0
220
0.0
230
-1.0
  0
SOLID
  5
62
330
40
100
AcDbEntity
  8
LAYER_2
 62
   140
100
AcDbTrace
 10
-40.84804113082116
 20
-70.08157625631829
 30
0.0
 11
-40.84804113082116
 21
-4.919526711122796
 31
0.0
 12
-40.84804113577551
 22
-70.08157625556215
 32
0.0
 13
-40.84804113577551
 23
-70.08157625556215
 33
0.0
210
0.0
220
0.0
230
-1.0
  0
SOLID
  5
63
330
40
100
AcDbEntity
  8
LAYER_2
 62
   140
100
AcDbTrace
 10
-40.84804113577551
 20
-70.08157625556215
 30
0.0
 11
-40.84804113082116
 21
-4.919526711122796
 31
0.0
 12
-40.84804113577551
 22
-4.919526711372968
 32
0.0
 13
-40.84804113577551
 23
-4.919526711372968
 33
0.0
210
0.0
220
0.0
230
-1.0
  0
SOLID
  5
64
330
40
100
AcDbEntity
  8
LAYER_2
 62
   140
100
AcDbTrace
 10
-40.84804113577551
 20
-70.08157625556215
 30
0.0
 11
-40.84804113577551
 21
-4.919526711372968
 31
0.0
 12
-44.09983967632246
 22
-69.5852867853194
 32
0.0
 13
-44.09983967632246
 23
-69.5852867853194
 33
0.0
210
0.0
220
0.0
230
-1.0
  0
SOLID
  5
65
330
40
100
AcDbEntity
  8
LAYER_2
 62
   140
100
AcDbTrace
 10
-44.09983967632246
 20
-69.5852867853194
 30
0.0
 11
-40.84804113577551
 21
-4.919526711372968
 31
0.0
 12
-44.09983967632246
 22
-5.415805836722063
 32
0.0
 13
-44.09983967632246
 23
-5.415805836722063
 33
0.0
210
0.0
220
0.0
230
-1.0
  0
SOLID
  5
66
330
40
100
AcDbEntity
  8
LAYER_2
 62
   140
100
AcDbTrace
 10
-44.09983967632246
 20
-69.5852867853194
 30
0.0
 11
-44.09983967632246
 21
-5.415805836722063
 31
0.0
 12
-44.09983968079957
 22
-69.5852867841682
 32
0.0
 13
-44.09983968079957
 23
-69.5852867841682
 33
0.0
210
0.0
220
0.0
230
-1.0
  0
SOLID
  5
67
330
40
100
AcDbEntity
  8
LAYER_2
 62
   140
100
AcDbTrace
 10
-44.09983968079957
 20
-69.5852867841682
 30
0.0
 11
-44.09983967632246
 21
-5.415805836722063
 31
0.0
 12
-44.09983968079957
 22
-5.415805837405345
 32
0.0
 13
-44.09983968079957
 23
-5.415805837405345
 33
0.0
210
0.0
220
0.0
230
-1.0
  0
SOLID
  5
68
330
40
100
AcDbEntity
  8
LAYER_2
 62
   140
100
AcDbTrace
 10
-44.09983968079957
 20
-69.5852867841682
 30
0.0
 11
-44.09983968079957
 21
-5.415805837405345
 31
0.0
 12
-47.23845270485883
 22
-68.77825945816906
 32
0.0
 13
-47.23845270485883
 23
-68.77825945816906
 33
0.0
210
0.0
220
0.0
230
-1.0
  0
SOLID
  5
69
330
40
100
AcDbEntity
  8
LAYER_2
 62
   140
100
AcDbTrace
 10
-47.23845270485883
 20
-68.77825945816906
 30
0.0
 11
-44.09983968079957
 21
-5.415805837405345
 31
0.0
 12
-47.23845270485883
 22
-6.222817771949039
 32
0.0
 13
-47.23845270485883
 23
-6.222817771949039
 33
0.0
210
0.0
220
0.0
230
-1.0
  0
SOLID
  5
6A
330
40
100
AcDbEntity
  8
LAYER_2
 62
   140
100
AcDbTrace
 10
-47.23845270485883
 20
-68.77825945816906
 30
0.0
 11
-47.23845270485883
 21
-6.222817771949039
 31
0.0
 12
-47.23845270885831
 22
-68.77825945670523
 32
0.0
 13
-47.23845270885831
 23
-68.77825945670523
 33
0.0
210
0.0
220
0.0
230
-1.0
  0
SOLID
  5
6B
330
40
100
AcDbEntity
  8
LAYER_2
 62
   140
100
AcDbTrace
 10
-47.23845270885831
 20
-68.77825945670523
 30
0.0
 11
-47.23845270485883
 21
-6.222817771949039
 31
0.0
 12
-47.23845270885831
 22
-6.2228177729774
 32
0.0
 13
-47.23845270885831
 23
-6.2228177729774
 33
0.0
210
0.0
220
0.0
230
-1.0
  0
SOLID
  5
6C
330
40
100
AcDbEntity
  8
LAYER_2
 62
   140
100
AcDbTrace
 10
-47.23845270885831
 20
-68.77825945670523
 30
0.0
 11
-47.23845270885831
 21
-6.2228177729774
 31
0.0
 12
-50.24741743738932
 22
-67.67695755856091
 32
0.0
 13
-50.24741743738932
 23
-67.67695755856091
 33
0.0
210
0.0
220
0.0
230
-1.0
  0
SOLID
  5
6D
330
40
100
AcDbEntity
  8
LAYER_2
 62
   140
100
AcDbTrace
 10
-50.24741743738932
 20
-67.67695755856091
 30
0.0
 11
-47.23845270885831
 21
-6.2228177729774
 31
0.0
 12
-50.24741743738932
 22
-7.324100747067749
 32
0.0
 13
-50.24741743738932
 23
-7.324100747067749
 33
0.0
210
0.0
220
0.0
230
-1.0
  0
SOLID
  5
6E
330
40
100
AcDbEntity
  8
LAYER_2
 62
   140
100
AcDbTrace
 10
-50.24741743738932
 20
-67.67695755856091
 30
0.0
 11
-50.24741743738932
 21
-7.324100747067749
 31
0.0
 12
-50.2474174409157
 22
-67.67695755686216
 32
0.0
 13
-50.2474174409157
 23
-67.67695755686216
 33
0.0
210
0.0
220
0.0
230
-1.0
  0
SOLID
  5
6F
330
40
100
AcDbEntity
  8
LAYER_2
 62
   140
100
AcDbTrace
 10
-50.2474174409157
 20
-67.67695755686216
 30
0.0
 11
-50.24741743738932
 21
-7.324100747067749
 31
0.0
 12
-50.2474174409157
 22
-7.32410074835841
 32
0.0
 13
-50.2474174409157
 23
-7.32410074835841
 33
0.0
210
0.0
220
0.0
230
-1.0
  0
SOLID
  5
70
330
40
100
AcDbEntity
  8
LAYER_2
 62
   140
100
AcDbTrace
 10
-50.2474174409157
 20
-67.67695755686216
 30
0.0
 11
-50.2474174409157
 21
-7.32410074835841
 31
0.0
 12
-53.11027109487291
 22
-66.29784437018859
 32
0.0
 13
-53.11027109487291
 23
-66.29784437018859
 33
0.0
210
0.0
220
0.0
230
-1.0
  0
SOLID
  5
71
330
40
100
AcDbEntity
  8
LAYER_2
 62
   140
100
AcDbTrace
 10
-53.11027109487291
 20
-66.29784437018859
 30
0.0
 11
-50.2474174409157
 21
-7.32410074835841
 31
0.0
 12
-53.11027109487291
 22
-8.703192992342245
 32
0.0
 13
-53.11027109487291
 23
-8.703192992342245
 33
0.0
210
0.0
220
0.0
230
-1.0
  0
SOLID
  5
72
330
40
100
AcDbEntity
  8
LAYER_2
 62
   140
100
AcDbTrace
 10
-53.11027109487291
 20
-66.29784437018859
 30
0.0
 11
-53.11027109487291
 21
-8.703192992342245
 31
0.0
 12
-53.11027109793567
 22
-66.29784436832792
 32
0.0
 13
-53.11027109793567
 23
-66.29784436832792
 33
0.0
210
0.0
220
0.0
230
-1.0
  0
SOLID
  5
73
330
40
100
AcDbEntity
  8
LAYER_2
 62
   140
100
AcDbTrace
 10
-53.11027109793567
 20
-66.29784436832792
 30
0.0
 11
-53.11027109487291
 21
-8.703192992342245
 31
0.0
 12
-53.11027109793567
 22
-8.703192993817636
 32
0.0
 13
-53.11027109793567
 23
-8.703192993817636
 33
0.0
210
0.0
220
0.0
230
-1.0
  0
SOLID
  5
74
330
40
100
AcDbEntity
  8
LAYER_2
 62
   140
100
AcDbTrace
 10
-53.11027109793567
 20
-66.29784436832792
 30
0.0
 11
-53.11027109793567
 21
-8.703192993817636
 31
0.0
 12
-55.81055089826863
 22
-64.65738317674575
 32
0.0
 13
-55.81055089826863
 23
-64.65738317674575
 33
0.0
210
0.0
220
0.0
230
-1.0
  0
SOLID
  5
75
330
40
100
AcDbEntity
  8
LAYER_2
 62
   140
100
AcDbTrace
 10
-55.81055089826863
 20
-64.65738317674575
 30
0.0
 11
-53.11027109793567
 21
-8.703192993817636
 31
0.0
 12
-55.81055089826863
 22
-10.3436327380366
 32
0.0
 13
-55.81055089826863
 23
-10.3436327380366
 33
0.0
210
0.0
220
0.0
230
-1.0
  0
SOLID
  5
76
330
40
100
AcDbEntity
  8
LAYER_2
 62
   140
100
AcDbTrace
 10
-55.81055090088215
 20
-64.6573831747914
 30
0.0
 11
-55.81055090088215
 21
-10.34363273962433
 31
0.0
 12
-58.33179406853549
 22
-62.77203726192604
 32
0.0
 13
-58.33179406853549
 23
-62.77203726192604
 33
0.0
210
0.0
220
0.0
230
-1.0
  0
SOLID
  5
77
330
40
100
AcDbEntity
  8
LAYER_2
 62
   140
100
AcDbTrace
 10
-58.33179406853549
 20
-62.77203726192604
 30
0.0
 11
-55.81055090088215
 21
-10.34363273962433
 31
0.0
 12
-58.33179406853549
 22
-12.22895821441492
 32
0.0
 13
-58.33179406853549
 23
-12.22895821441492
 33
0.0
210
0.0
220
0.0
230
-1.0
  0
SOLID
  5
78
330
40
100
AcDbEntity
  8
LAYER_2
 62
   140
100
AcDbTrace
 10
-58.33179407071911
 20
-62.77203725994145
 30
0.0
 11
-58.33179407071911
 21
-12.22895821604778
 31
0.0
 12
-60.65753782663249
 22
-60.65826990942311
 32
0.0
 13
-60.65753782663249
 23
-60.65826990942311
 33
0.0
210
0.0
220
0.0
230
-1.0
  0
SOLID
  5
79
330
40
100
AcDbEntity
  8
LAYER_2
 62
   140
100
AcDbTrace
 10
-60.65753782663249
 20
-60.65826990942311
 30
0.0
 11
-58.33179407071911
 21
-12.22895821604778
 31
0.0
 12
-60.65753782663249
 22
-14.34270765174129
 32
0.0
 13
-60.65753782663249
 23
-14.34270765174129
 33
0.0
210
0.0
220
0.0
230
-1.0
  0
SOLID
  5
7A
330
40
100
AcDbEntity
  8
LAYER_2
 62
   140
100
AcDbTrace
 10
-60.6575378284105
 20
-60.65826990746683
 30
0.0
 11
-60.6575378284105
 21
-14.34270765335723
 31
0.0
 12
-62.77131939351865
 22
-58.33254440293061
 32
0.0
 13
-62.77131939351865
 23
-58.33254440293061
 33
0.0
210
0.0
220
0.0
230
-1.0
  0
SOLID
  5
7B
330
40
100
AcDbEntity
  8
LAYER_2
 62
   140
100
AcDbTrace
 10
-62.77131939351865
 20
-58.33254440293061
 30
0.0
 11
-60.6575378284105
 21
-14.34270765335723
 31
0.0
 12
-62.77131939351865
 22
-16.66841928027983
 32
0.0
 13
-62.77131939351865
 23
-16.66841928027983
 33
0.0
210
0.0
220
0.0
230
-1.0
  0
SOLID
  5
7C
330
40
100
AcDbEntity
  8
LAYER_2
 62
   140
100
AcDbTrace
 10
-62.77131939492026
 20
-58.33254440105629
 30
0.0
 11
-62.77131939492026
 21
-16.66841928182197
 31
0.0
 12
-64.65667599015298
 22
-55.81132402614218
 32
0.0
 13
-64.65667599015298
 23
-55.81132402614218
 33
0.0
210
0.0
220
0.0
230
-1.0
  0
SOLID
  5
7D
330
40
100
AcDbEntity
  8
LAYER_2
 62
   140
100
AcDbTrace
 10
-64.65667599015298
 20
-55.81132402614218
 30
0.0
 11
-62.77131939492026
 21
-16.66841928182197
 31
0.0
 12
-64.65667599015298
 22
-19.1896313302946
 32
0.0
 13
-64.65667599015298
 23
-19.1896313302946
 33
0.0
210
0.0
220
0.0
230
-1.0
  0
SOLID
  5
7E
330
40
100
AcDbEntity
  8
LAYER_2
 62
   140
100
AcDbTrace
 10
-64.65667599121235
 20
-55.81132402439842
 30
0.0
 11
-64.65667599121235
 21
-19.18963133171126
 31
0.0
 12
-66.29714483749447
 22
-53.11107206275148
 32
0.0
 13
-66.29714483749447
 23
-53.11107206275148
 33
0.0
210
0.0
220
0.0
230
-1.0
  0
SOLID
  5
7F
330
40
100
AcDbEntity
  8
LAYER_2
 62
   140
100
AcDbTrace
 10
-66.29714483749447
 20
-53.11107206275148
 30
0.0
 11
-64.65667599121235
 21
-19.18963133171126
 31
0.0
 12
-66.29714483749447
 22
-21.88988203204955
 32
0.0
 13
-66.29714483749447
 23
-21.88988203204955
 33
0.0
210
0.0
220
0.0
230
-1.0
  0
SOLID
  5
80
330
40
100
AcDbEntity
  8
LAYER_2
 62
   140
100
AcDbTrace
 10
-66.29714483825073
 20
-53.11107206118162
 30
0.0
 11
-66.29714483825073
 21
-21.88988203329437
 31
0.0
 12
-67.67626315650216
 22
-50.24825179645215
 32
0.0
 13
-67.67626315650216
 23
-50.24825179645215
 33
0.0
210
0.0
220
0.0
230
-1.0
  0
SOLID
  5
81
330
40
100
AcDbEntity
  8
LAYER_2
 62
   140
100
AcDbTrace
 10
-67.67626315650216
 20
-50.24825179645215
 30
0.0
 11
-66.29714483825073
 21
-21.88988203329437
 31
0.0
 12
-67.67626315650216
 22
-24.75270961580851
 32
0.0
 13
-67.67626315650216
 23
-24.75270961580851
 33
0.0
210
0.0
220
0.0
230
-1.0
  0
SOLID
  5
82
330
40
100
AcDbEntity
  8
LAYER_2
 62
   140
100
AcDbTrace
 10
-67.67626315699934
 20
-50.24825179509378
 30
0.0
 11
-67.67626315699934
 21
-24.75270961684058
 31
0.0
 12
-68.77756816813505
 22
-47.23932651093784
 32
0.0
 13
-68.77756816813505
 23
-47.23932651093784
 33
0.0
210
0.0
220
0.0
230
-1.0
  0
SOLID
  5
83
330
40
100
AcDbEntity
  8
LAYER_2
 62
   140
100
AcDbTrace
 10
-68.77756816813505
 20
-47.23932651093784
 30
0.0
 11
-67.67626315699934
 21
-24.75270961684058
 31
0.0
 12
-68.77756816813505
 22
-27.7616523118348
 32
0.0
 13
-68.77756816813505
 23
-27.7616523118348
 33
0.0
210
0.0
220
0.0
230
-1.0
  0
SOLID
  5
84
330
40
100
AcDbEntity
  8
LAYER_2
 62
   140
100
AcDbTrace
 10
-68.77756816842212
 20
-47.2393265098214
 30
0.0
 11
-68.77756816842212
 21
-27.76165231261913
 31
0.0
 12
-69.58459709335214
 22
-44.10075948990221
 32
0.0
 13
-69.58459709335214
 23
-44.10075948990221
 33
0.0
210
0.0
220
0.0
230
-1.0
  0
SOLID
  5
85
330
40
100
AcDbEntity
  8
LAYER_2
 62
   140
100
AcDbTrace
 10
-69.58459709335214
 20
-44.10075948990221
 30
0.0
 11
-68.77756816842212
 21
-27.76165231261913
 31
0.0
 12
-69.58459709335214
 22
-30.90024835039028
 32
0.0
 13
-69.58459709335214
 23
-30.90024835039028
 33
0.0
210
0.0
220
0.0
230
-1.0
  0
SOLID
  5
86
330
40
100
AcDbEntity
  8
LAYER_2
 62
   140
100
AcDbTrace
 10
-69.58459709348303
 20
-44.10075948904466
 30
0.0
 11
-69.58459709348303
 21
-30.90024835089929
 31
0.0
 12
-70.08088715311246
 22
-40.84901401703888
 32
0.0
 13
-70.08088715311246
 23
-40.84901401703888
 33
0.0
210
0.0
220
0.0
230
-1.0
  0
SOLID
  5
87
330
40
100
AcDbEntity
  8
LAYER_2
 62
   140
100
AcDbTrace
 10
-70.08088715311246
 20
-40.84901401703888
 30
0.0
 11
-69.58459709348303
 21
-30.90024835089929
 31
0.0
 12
-70.08088715311246
 22
-34.15203596173049
 32
0.0
 13
-70.08088715311246
 23
-34.15203596173049
 33
0.0
210
0.0
220
0.0
230
-1.0
  0
SOLID
  5
88
330
40
100
AcDbEntity
  8
LAYER_2
 62
   140
100
AcDbTrace
 10
-70.08088715314601
 20
-40.84901401637445
 30
0.0
 11
-70.08088715314601
 21
-34.15203596195033
 31
0.0
 12
-70.249975568375
 22
-37.50055337604153
 32
0.0
 13
-70.249975568375
 23
-37.50055337604153
 33
0.0
210
0.0
220
0.0
230
-1.0
  0
ENDBLK
  5
8A
330
40
100
AcDbEntity
  8
0
100
AcDbBlockEnd
  0
ENDSEC
  0
SECTION
  2
ENTITIES
  0
SPLINE
  5
3D
330
1F
100
AcDbEntity
  8
LAYER_2
100
AcDbSpline
210
0.0
220
0.0
230
1.0
 70
    11
 71
     3
 72
    17
 73
    13
 74
     0
 42
0.0000000001
 43
0.0000000001
 40
0.0
 40
0.0
 40
0.0
 40
0.0
 40
1.0
 40
1.0
 40
1.0
 40
2.0
 40
2.0
 40
2.0
 40
3.0
 40
3.0
 40
3.0
 40
4.0
 40
4.0
 40
4.0
 40
4.0
 10
37.49951984739595
 20
-4.750442164611001
 30
0.0
 10
19.41242404028579
 20
-4.750442164611001
 30
0.0
 10
4.749753145513951
 20
-19.41311305938283
 30
0.0
 10
4.749753145513951
 20
-37.50055337604153
 30
0.0
 10
4.749753145513951
 20
-55.5876491831517
 30
0.0
 10
19.41242404028579
 20
-70.25066458747206
 30
0.0
 10
37.49951984739595
 20
-70.25066458747206
 30
0.0
 10
55.58696016405465
 20
-70.25066458747206
 30
0.0
 10
70.249975568375
 20
-55.5876491831517
 30
0.0
 10
70.249975568375
 20
-37.50055337604153
 30
0.0
 10
70.249975568375
 20
-19.41311305938283
 30
0.0
 10
55.58696016405465
 20
-4.750442164611001
 30
0.0
 10
37.49951984739595
 20
-4.750442164611001
 30
0.0
  0
INSERT
  5
3E
330
1F
100
AcDbEntity
  8
LAYER_2
 62
   140
100
AcDbBlockReference
  2
*U1
 10
0.0
 20
0.0
 30
0.0
1001
ACAD
1002
{
1000
R14_HATCH_DATA
1000
3E
1011
1.0
1021
0.0
1031
0.0
1011
0.0
1021
1.0
1031
0.0
1011
0.0
1021
0.0
1031
1.0
1040
0.0
1010
0.0
1020
0.0
1030
1.0
1000
SOLID
1070
     1
1070
     1
1071
        1
1071
        1
1071
        1
1070
     4
1070
     3
1070
     0
1070
     1
1071
       17
1071
       13
1040
0.0
1040
0.0
1040
0.0
1040
0.0
1040
1.0
1040
1.0
1040
1.0
1040
2.0
1040
2.0
1040
2.0
1040
3.0
1040
3.0
1040
3.0
1040
4.0
1040
4.0
1040
4.0
1040
4.0
1040
37.49951984739595
1040
-4.750442164611001
1040
19.41242404028579
1040
-4.750442164611001
1040
4.749753145513951
1040
-19.41311305938283
1040
4.749753145513951
1040
-37.50055337604153
1040
4.749753145513951
1040
-55.5876491831517
1040
19.41242404028579
1040
-70.25066458747206
1040
37.49951984739595
1040
-70.25066458747206
1040
55.58696016405465
1040
-70.25066458747206
1040
70.249975568375
1040
-55.5876491831517
1040
70.249975568375
1040
-37.50055337604153
1040
70.249975568375
1040
-19.41311305938283
1040
55.58696016405465
1040
-4.750442164611001
1040
37.49951984739595
1040
-4.750442164611001
1071
        0
1070
     2
1070
     1
1071
        0
1002
}
  0
ENDSEC
  0
SECTION
  2
OBJECTS
  0
DICTIONARY
  5
C
330
0
100
AcDbDictionary
  3
ACAD_GROUP
350
D
  3
ACAD_LAYOUT
350
1A
  3
ACAD_MLINESTYLE
350
17
  3
ACAD_PLOTSETTINGS
350
19
  3
ACAD_TABLESTYLE
350
3F
  3
ACAD_VISUALSTYLE
350
2A
1001
ACAD
1000
TREAT_AS_HARD
1070
     0
  0
DICTIONARY
  5
D
102
{ACAD_REACTORS
330
C
102
}
330
C
100
AcDbDictionary
1001
ACAD
1000
TREAT_AS_HARD
1070
     0
  0
DICTIONARY
  5
1A
102
{ACAD_REACTORS
330
C
102
}
330
C
100
AcDbDictionary
1001
ACAD
1000
TREAT_AS_HARD
1070
     0
  0
DICTIONARY
  5
17
102
{ACAD_REACTORS
330
C
102
}
330
C
100
AcDbDictionary
  3
STANDARD
350
18
1001
ACAD
1000
TREAT_AS_HARD
1070
     0
  0
DICTIONARY
  5
19
102
{ACAD_REACTORS
330
C
102
}
330
C
100
AcDbDictionary
1001
ACAD
1000
TREAT_AS_HARD
1070
     0
  0
DICTIONARY
  5
3F
102
{ACAD_REACTORS
330
C
102
}
330
C
100
AcDbDictionary
1001
ACAD
1000
TREAT_AS_HARD
1070
     0
  0
DICTIONARY
  5
2A
102
{ACAD_REACTORS
330
C
102
}
330
C
100
AcDbDictionary
  3
2DWIREFRAME
350
2F
  3
3DWIREFRAME
350
30
  3
3D_HIDDEN
350
31
  3
BASIC
350
32
  3
BRIGHTEN
350
36
  3
COLORCHANGE
350
3A
  3
CONCEPTUAL
350
34
  3
DIM
350
35
  3
FACEPATTERN
350
39
  3
FLAT
350
2B
  3
FLATWITHEDGES
350
2C
  3
GOURAUD
350
2D
  3
GOURAUDWITHEDGES
350
2E
  3
LINEPATTERN
350
38
  3
REALISTIC
350
33
  3
THICKEN
350
37
1001
ACAD
1000
TREAT_AS_HARD
1070
     0
  0
MLINESTYLE
  5
18
102
{ACAD_REACTORS
330
17
102
}
330
17
100
AcDbMlineStyle
  2
Standard
 70
     0
  3

 62
   256
 51
90.0
 52
90.0
 71
     2
 49
0.5
 62
   256
  6
BYLAYER
 49
-0.5
 62
   256
  6
BYLAYER
  0
VISUALSTYLE
  5
2F
102
{ACAD_REACTORS
330
2A
102
}
330
2A
100
AcDbVisualStyle
  2
2dWireframe
 70
     4
 71
     0
 72
     2
 73
     0
 90
        0
 40
-0.6
 41
-30.0
 62
     5
 63
     7
 74
     1
 91
        4
 64
     7
 65
   257
 75
     1
175
     1
 42
1.0
 92
        0
 66
   257
 43
1.0
 76
     1
 77
     6
 78
     2
 67
     7
 79
     5
170
     0
171
     0
290
     0
174
     0
 93
        1
 44
0.0
173
     0
291
     0
 45
0.0
1001
ACAD
1000
AcDbSavedByObjectVersion
1070
     0
  0
VISUALSTYLE
  5
30
102
{ACAD_REACTORS
330
2A
102
}
330
2A
100
AcDbVisualStyle
  2
3dWireframe
 70
     5
 71
     0
 72
     2
 73
     0
 90
        0
 40
-0.6
 41
-30.0
 62
     5
 63
     7
 74
     1
 91
        4
 64
     7
 65
   257
 75
     1
175
     1
 42
1.0
 92
        0
 66
   257
 43
1.0
 76
     1
 77
     6
 78
     2
 67
     7
 79
     5
170
     0
171
     0
290
     0
174
     0
 93
        1
 44
0.0
173
     0
291
     0
 45
0.0
1001
ACAD
1000
AcDbSavedByObjectVersion
1070
     0
  0
VISUALSTYLE
  5
31
102
{ACAD_REACTORS
330
2A
102
}
330
2A
100
AcDbVisualStyle
  2
3D Hidden
 70
     6
 71
     1
 72
     2
 73
     2
 90
        0
 40
-0.6
 41
-30.0
 62
     5
 63
     7
 74
     2
 91
        2
 64
     7
 65
   257
 75
     2
175
     1
 42
40.0
 92
        0
 66
   257
 43
1.0
 76
     1
 77
     6
 78
     2
 67
     7
 79
     3
170
     0
171
     0
290
     0
174
     0
 93
        1
 44
0.0
173
     0
291
     0
 45
0.0
1001
ACAD
1000
AcDbSavedByObjectVersion
1070
     0
  0
VISUALSTYLE
  5
32
102
{ACAD_REACTORS
330
2A
102
}
330
2A
100
AcDbVisualStyle
  2
Basic
 70
     7
 71
     1
 72
     0
 73
     1
 90
        0
 40
-0.6
 41
-30.0
 62
     5
 63
     7
 74
     0
 91
        4
 64
     7
 65
   257
 75
     1
175
     1
 42
1.0
 92
        8
 66
     7
 43
1.0
 76
     1
 77
     6
 78
     2
 67
     7
 79
     5
170
     0
171
     0
290
     0
174
     0
 93
        1
 44
0.0
173
     0
291
     1
 45
0.0
1001
ACAD
1000
AcDbSavedByObjectVersion
1070
     0
  0
VISUALSTYLE
  5
36
102
{ACAD_REACTORS
330
2A
102
}
330
2A
100
AcDbVisualStyle
  2
Brighten
 70
    12
 71
     2
 72
     2
 73
     0
 90
        0
 40
-0.6
 41
-30.0
 62
     5
 63
     7
 74
     1
 91
        4
 64
     7
 65
   257
 75
     1
175
     1
 42
1.0
 92
        8
 66
     7
 43
1.0
 76
     1
 77
     6
 78
     2
 67
     7
 79
     5
170
     0
171
     0
290
     0
174
     0
 93
        1
 44
50.0
173
     0
291
     1
 45
0.0
1001
ACAD
1000
AcDbSavedByObjectVersion
1070
     0
  0
VISUALSTYLE
  5
3A
102
{ACAD_REACTORS
330
2A
102
}
330
2A
100
AcDbVisualStyle
  2
ColorChange
 70
    16
 71
     2
 72
     2
 73
     3
 90
        0
 40
-0.6
 41
-30.0
 62
     5
 63
     8
 74
     1
 91
        4
 64
     7
 65
   257
 75
     1
175
     1
 42
1.0
 92
        8
 66
     8
 43
1.0
 76
     1
 77
     6
 78
     2
 67
     7
 79
     5
170
     0
171
     0
290
     0
174
     0
 93
        1
 44
0.0
173
     0
291
     1
 45
0.0
1001
ACAD
1000
AcDbSavedByObjectVersion
1070
     0
  0
VISUALSTYLE
  5
34
102
{ACAD_REACTORS
330
2A
102
}
330
2A
100
AcDbVisualStyle
  2
Conceptual
 70
     9
 71
     3
 72
     2
 73
     0
 90
        0
 40
-0.6
 41
-30.0
 62
     5
 63
     7
 74
     2
 91
        2
 64
     7
 65
   257
 75
     1
175
     1
 42
40.0
 92
        8
 66
     7
 43
1.0
 76
     1
 77
     6
 78
     2
 67
     7
 79
     3
170
     0
171
     0
290
     0
174
     0
 93
        1
 44
0.0
173
     0
291
     0
 45
0.0
1001
ACAD
1000
AcDbSavedByObjectVersion
1070
     0
  0
VISUALSTYLE
  5
35
102
{ACAD_REACTORS
330
2A
102
}
330
2A
100
AcDbVisualStyle
  2
Dim
 70
    11
 71
     2
 72
     2
 73
     0
 90
        0
 40
-0.6
 41
-30.0
 62
     5
 63
     7
 74
     1
 91
        4
 64
     7
 65
   257
 75
     1
175
     1
 42
1.0
 92
        8
 66
     7
 43
1.0
 76
     1
 77
     6
 78
     2
 67
     7
 79
     5
170
     0
171
     0
290
     0
174
     0
 93
        1
 44
-50.0
173
     0
291
     1
 45
0.0
1001
ACAD
1000
AcDbSavedByObjectVersion
1070
     0
  0
VISUALSTYLE
  5
39
102
{ACAD_REACTORS
330
2A
102
}
330
2A
100
AcDbVisualStyle
  2
Facepattern
 70
    15
 71
     2
 72
     2
 73
     0
 90
        0
 40
-0.6
 41
-30.0
 62
     5
 63
     7
 74
     1
 91
        4
 64
     7
 65
   257
 75
     1
175
     1
 42
1.0
 92
        8
 66
     7
 43
1.0
 76
     1
 77
     6
 78
     2
 67
     7
 79
     5
170
     0
171
     0
290
     0
174
     0
 93
        1
 44
0.0
173
     0
291
     1
 45
0.0
1001
ACAD
1000
AcDbSavedByObjectVersion
1070
     0
  0
VISUALSTYLE
  5
2B
102
{ACAD_REACTORS
330
2A
102
}
330
2A
100
AcDbVisualStyle
  2
Flat
 70
     0
 71
     2
 72
     1
 73
     1
 90
        2
 40
-0.6
 41
30.0
 62
     5
 63
     7
 74
     0
 91
        4
 64
     7
 65
   257
 75
     1
175
     1
 42
1.0
 92
        8
 66
     7
 43
1.0
 76
     1
 77
     6
 78
     2
 67
     7
 79
     5
170
     0
171
     0
290
     0
174
     0
 93
       13
 44
0.0
173
     0
291
     1
 45
0.0
1001
ACAD
1000
AcDbSavedByObjectVersion
1070
     0
  0
VISUALSTYLE
  5
2C
102
{ACAD_REACTORS
330
2A
102
}
330
2A
100
AcDbVisualStyle
  2
FlatWithEdges
 70
     1
 71
     2
 72
     1
 73
     1
 90
        2
 40
-0.6
 41
30.0
 62
     5
 63
     7
 74
     1
 91
        4
 64
     7
 65
   257
 75
     1
175
     1
 42
1.0
 92
        0
 66
   257
 43
1.0
 76
     1
 77
     6
 78
     2
 67
     7
 79
     5
170
     0
171
     0
290
     0
174
     0
 93
       13
 44
0.0
173
     0
291
     1
 45
0.0
1001
ACAD
1000
AcDbSavedByObjectVersion
1070
     0
  0
VISUALSTYLE
  5
2D
102
{ACAD_REACTORS
330
2A
102
}
330
2A
100
AcDbVisualStyle
  2
Gouraud
 70
     2
 71
     2
 72
     2
 73
     1
 90
        2
 40
-0.6
 41
30.0
 62
     5
 63
     7
 74
     0
 91
        4
 64
     7
 65
   257
 75
     1
175
     1
 42
1.0
 92
        0
 66
     7
 43
1.0
 76
     1
 77
     6
 78
     2
 67
     7
 79
     5
170
     0
171
     0
290
     0
174
     0
 93
       13
 44
0.0
173
     0
291
     1
 45
0.0
1001
ACAD
1000
AcDbSavedByObjectVersion
1070
     0
  0
VISUALSTYLE
  5
2E
102
{ACAD_REACTORS
330
2A
102
}
330
2A
100
AcDbVisualStyle
  2
GouraudWithEdges
 70
     3
 71
     2
 72
     2
 73
     1
 90
        2
 40
-0.6
 41
30.0
 62
     5
 63
     7
 74
     1
 91
        4
 64
     7
 65
   257
 75
     1
175
     1
 42
1.0
 92
        0
 66
   257
 43
1.0
 76
     1
 77
     6
 78
     2
 67
     7
 79
     5
170
     0
171
     0
290
     0
174
     0
 93
       13
 44
0.0
173
     0
291
     1
 45
0.0
1001
ACAD
1000
AcDbSavedByObjectVersion
1070
     0
  0
VISUALSTYLE
  5
38
102
{ACAD_REACTORS
330
2A
102
}
330
2A
100
AcDbVisualStyle
  2
Linepattern
 70
    14
 71
     2
 72
     2
 73
     0
 90
        0
 40
-0.6
 41
-30.0
 62
     5
 63
     7
 74
     1
 91
        4
 64
     7
 65
   257
 75
     7
175
     7
 42
1.0
 92
        8
 66
     7
 43
1.0
 76
     1
 77
     6
 78
     2
 67
     7
 79
     5
170
     0
171
     0
290
     0
174
     0
 93
        1
 44
0.0
173
     0
291
     1
 45
0.0
1001
ACAD
1000
AcDbSavedByObjectVersion
1070
     0
  0
VISUALSTYLE
  5
33
102
{ACAD_REACTORS
330
2A
102
}
330
2A
100
AcDbVisualStyle
  2
Realistic
 70
     8
 71
     2
 72
     2
 73
     0
 90
        0
 40
-0.6
 41
-30.0
 62
     5
 63
     7
 74
     1
 91
        0
 64
     7
 65
   257
 75
     1
175
     1
 42
1.0
 92
        8
 66
     8
 43
1.0
 76
     1
 77
     6
 78
     2
 67
     7
 79
     5
170
     0
171
     0
290
     0
174
     0
 93
       13
 44
0.0
173
     0
291
     0
 45
0.0
1001
ACAD
1000
AcDbSavedByObjectVersion
1070
     0
  0
VISUALSTYLE
  5
37
102
{ACAD_REACTORS
330
2A
102
}
330
2A
100
AcDbVisualStyle
  2
Thicken
 70
    13
 71
     2
 72
     2
 73
     0
 90
        0
 40
-0.6
 41
-30.0
 62
     5
 63
     7
 74
     1
 91
        4
 64
     7
 65
   257
 75
     1
175
     1
 42
1.0
 92
       12
 66
     7
 43
1.0
 76
     1
 77
     6
 78
     2
 67
     7
 79
     5
170
     0
171
     0
290
     0
174
     0
 93
        1
 44
0.0
173
     0
291
     1
 45
0.0
1001
ACAD
1000
AcDbSavedByObjectVersion
1070
     0
  0
ENDSEC
  0
EOF
